<svg version="1.1" id="Layer_1" xmlns="http://www.w3.org/2000/svg" xmlns:xlink="http://www.w3.org/1999/xlink" x="0px" y="0px"
	 width="100%" viewBox="0 0 360 360" enable-background="new 0 0 360 360" xml:space="preserve">
<path fill="#F3F2F2" opacity="1.000000" stroke="none" 
	d="
M189.000000,361.000000 
	C183.645065,361.000000 178.290146,361.000000 172.589691,360.788696 
	C172.244156,360.577362 172.172104,360.094574 172.419647,359.755432 
	C172.744141,346.768127 173.148972,334.109833 172.761276,321.475922 
	C172.564133,315.051422 174.904236,310.400330 179.233170,306.097015 
	C198.835846,286.610413 218.365204,267.049957 237.882385,247.477570 
	C243.684097,241.659470 250.567932,236.626663 252.430389,227.373703 
	C251.036972,227.373703 249.447388,227.373703 247.857803,227.373703 
	C224.879532,227.373642 201.900085,227.251877 178.923920,227.471985 
	C174.089874,227.518295 172.744415,226.008987 172.794373,221.236801 
	C173.028030,198.927002 172.958725,176.613083 172.842804,154.301453 
	C172.821640,150.230331 172.080627,146.162949 171.638962,141.765656 
	C151.572998,141.765656 131.968781,141.831848 112.365280,141.742249 
	C99.421875,141.683090 86.479485,141.400040 73.684326,140.872833 
	C75.578285,138.524261 77.213562,136.409271 79.087395,134.532486 
	C108.990471,104.582314 138.960892,74.699188 168.779373,44.665184 
	C171.118759,42.308891 172.447159,38.948849 174.613373,35.926613 
	C175.087540,26.360954 175.271500,16.923140 175.168167,7.488470 
	C175.158813,6.634865 173.298859,5.801530 172.156830,4.633990 
	C171.676880,3.206132 171.338440,2.103065 171.000000,0.999999 
	C177.021149,1.000000 183.042297,1.000000 189.663025,1.383428 
	C190.160675,2.840183 190.058746,3.913510 189.615845,5.144945 
	C188.778000,9.895818 187.972672,14.480404 187.850647,19.083105 
	C187.620163,27.778484 187.782623,36.484280 187.602661,45.441036 
	C162.657745,70.473404 137.880051,95.238647 113.156242,120.057564 
	C111.706161,121.513214 110.690941,123.402061 109.402542,125.373878 
	C111.658440,126.794098 113.973312,128.886765 116.313721,128.915710 
	C137.119919,129.173141 157.930664,129.043823 178.739990,129.076965 
	C186.444733,129.089233 187.610260,130.409470 187.580811,137.872513 
	C187.490433,160.784119 187.436142,183.696121 187.472015,206.607803 
	C187.482300,213.175613 189.515213,215.062256 196.260529,215.049286 
	C226.049927,214.991989 255.839233,214.842117 285.628357,214.884979 
	C287.111389,214.887115 288.592255,216.381256 289.863342,217.430969 
	C288.278107,219.129089 286.935364,220.608612 285.524506,222.020096 
	C254.790604,252.766998 224.040344,283.497559 193.338623,314.276520 
	C191.990692,315.627869 191.073608,317.408936 189.649765,319.185425 
	C188.741623,321.916107 187.703613,324.436768 187.618958,326.989075 
	C187.361969,334.737549 187.310318,342.502594 187.514297,350.252319 
	C187.608856,353.845428 188.480606,357.418091 189.000000,361.000000 
z"/>
<path fill="#EB6741" opacity="1.000000" stroke="none" 
	d="
M189.956818,4.986836 
	C190.058746,3.913510 190.160675,2.840183 190.131287,1.383428 
	C190.444443,1.000000 190.888901,1.000000 191.961060,1.296840 
	C205.831604,1.705868 219.074356,1.829575 232.317398,1.890279 
	C232.876892,1.892843 233.439072,1.310083 234.000000,1.000001 
	C235.388885,1.000000 236.777786,1.000000 238.846222,1.331144 
	C250.038666,1.730245 260.551575,1.798201 271.526459,1.909889 
	C281.563629,2.739473 291.138824,3.525324 300.744141,4.307938 
	C300.774261,4.304701 300.772675,4.244126 300.903625,4.457382 
	C301.358032,4.728265 301.681519,4.785892 302.360931,4.975093 
	C307.131287,6.622121 311.545685,8.137573 316.236359,9.888281 
	C332.737091,17.830130 344.447357,30.044519 352.480713,46.359341 
	C354.358185,51.467567 356.129791,56.252838 357.876709,61.463848 
	C358.901306,68.259727 359.950653,74.629860 361.000000,81.000000 
	C361.000000,82.388893 361.000000,83.777779 360.701233,85.877373 
	C360.260834,87.563660 359.995422,88.539215 359.995239,89.514824 
	C359.983826,150.290634 359.987457,211.066437 360.043976,271.842224 
	C360.045288,273.228455 360.667450,274.614075 361.000000,276.000000 
	C361.000000,278.370575 361.000000,280.741119 360.643463,283.741180 
	C359.486145,289.900452 358.685364,295.430237 357.643982,301.236877 
	C355.859497,306.310089 354.315613,311.106415 352.507080,316.111481 
	C350.137207,320.151520 348.032013,323.982819 345.643524,328.001556 
	C339.511475,334.101624 333.662720,340.014252 327.477356,345.997284 
	C323.394592,348.302582 319.648376,350.537476 315.529785,352.840759 
	C310.424927,354.567627 305.692474,356.226105 300.533630,357.861023 
	C294.738190,358.891632 289.369080,359.945801 284.000000,361.000000 
	C279.975464,361.000000 275.950897,361.000000 271.168823,360.702881 
	C268.603516,360.272217 266.795929,360.024780 264.987976,360.022400 
	C242.205078,359.992340 219.420609,359.858948 196.640411,360.107117 
	C191.900635,360.158691 190.709106,358.649567 190.888657,354.176605 
	C191.215195,346.041046 191.047440,337.882202 190.948944,329.734711 
	C190.909271,326.455017 190.508804,323.179688 190.206757,319.669617 
	C190.140930,319.436829 189.955826,318.989838 189.955841,318.989838 
	C191.073608,317.408936 191.990692,315.627869 193.338623,314.276520 
	C224.040344,283.497559 254.790604,252.766998 285.524506,222.020096 
	C286.935364,220.608612 288.278107,219.129089 290.175354,217.275360 
	C291.333893,215.657974 292.486969,214.411163 292.407623,213.248459 
	C292.361420,212.571671 290.378479,211.619019 289.199554,211.508270 
	C286.284821,211.234436 283.330750,211.326035 280.393372,211.355682 
	C267.542877,211.485382 254.693069,211.699585 241.842377,211.780106 
	C226.574829,211.875778 211.303741,211.712234 196.040436,211.996368 
	C191.517792,212.080566 189.941223,210.897736 189.978073,206.147797 
	C190.171875,181.165665 190.034668,156.180984 190.056793,130.771469 
	C190.345581,124.563728 185.697220,125.157166 182.452011,125.116470 
	C165.468552,124.903496 148.480637,125.045944 131.495911,125.032722 
	C131.497543,125.000610 131.506226,125.063721 131.011993,125.037323 
	C127.310692,125.057770 124.103630,125.104614 120.523727,125.257233 
	C116.591698,125.271782 113.032532,125.180550 109.473358,125.089317 
	C110.690941,123.402061 111.706161,121.513214 113.156242,120.057564 
	C137.880051,95.238647 162.657745,70.473404 187.975235,45.228539 
	C189.040863,43.273827 189.988968,41.790100 189.999924,40.299488 
	C190.086411,28.529345 189.994110,16.757889 189.956818,4.986836 
M196.229553,38.573421 
	C195.237305,46.045631 190.212540,51.287319 185.599808,56.489094 
	C181.093353,61.571007 175.528442,65.698021 170.633362,70.455322 
	C162.756638,78.110321 155.045715,85.935959 147.270355,93.695145 
	C142.083725,98.871010 136.833725,103.986404 131.758133,109.269180 
	C129.410538,111.712601 127.411652,114.491043 124.263962,118.323975 
	C128.554245,118.961342 131.933182,120.511658 134.440643,119.617683 
	C139.666855,117.754395 144.726883,118.777557 149.861557,118.787994 
	C158.351532,118.805252 166.995224,119.817635 175.251251,118.454712 
	C178.310669,117.949654 181.038773,120.492096 183.962418,118.382263 
	C184.672989,117.869476 186.809952,119.333260 188.291046,119.888199 
	C188.532211,119.506470 188.773376,119.124748 189.014542,118.743019 
	C191.316727,122.696655 194.459991,126.406654 195.694763,130.669479 
	C197.046875,135.337357 196.906891,140.513687 196.944992,145.472061 
	C197.074295,162.298157 196.987686,179.125854 196.999359,195.952942 
	C197.003357,201.721725 200.915421,205.379364 206.659515,205.074982 
	C214.183868,204.676270 221.709717,203.992935 229.234665,203.996323 
	C238.807449,204.000626 248.379196,204.596802 257.953125,204.879578 
	C260.904114,204.966766 263.861298,204.893295 266.814667,204.840271 
	C271.234833,204.760925 275.653839,204.571457 280.073914,204.549927 
	C283.137482,204.535004 286.216278,204.955643 289.262970,204.768906 
	C294.165161,204.468460 298.188202,208.584579 297.761475,213.462280 
	C297.529266,216.116150 295.108673,217.719299 294.616455,219.523804 
	C293.058655,225.234955 288.015625,227.748688 284.796783,231.797623 
	C280.666870,236.992569 275.231689,241.134598 270.497162,245.868576 
	C265.884186,250.480988 261.522949,255.345230 256.908752,259.956360 
	C252.190399,264.671539 247.224304,269.138763 242.504684,273.852722 
	C237.925690,278.426208 233.658508,283.316772 229.002335,287.806732 
	C224.496201,292.152069 219.518326,296.009338 215.027924,300.369598 
	C211.065414,304.217224 207.990189,309.155762 203.597000,312.331207 
	C199.497238,315.294525 197.184982,319.144989 196.326401,323.378326 
	C195.111389,329.368896 195.121994,335.656586 195.064743,341.821503 
	C194.988571,350.022858 197.997360,355.576660 208.336365,355.099365 
	C223.743851,354.388123 239.181473,354.321655 254.606918,354.013519 
	C258.178589,353.942139 261.752930,354.002960 265.991547,354.002960 
	C265.825378,353.502350 266.064636,354.223083 265.988464,353.993652 
	C268.019287,354.135956 269.596619,354.267578 271.176453,354.352051 
	C273.348480,354.468231 275.573456,354.894043 277.686310,354.581848 
	C284.940582,353.510071 292.267029,352.611023 299.352325,350.806976 
	C305.482117,349.246277 311.726318,347.250366 317.165710,344.131439 
	C321.848602,341.446259 326.943848,339.185608 330.424652,334.150299 
	C334.120758,328.803497 340.348145,325.179352 343.911011,319.775055 
	C347.617645,314.152679 350.090698,307.478363 351.925720,300.933899 
	C353.482910,295.380463 353.444763,289.363647 353.946411,283.537598 
	C354.167938,280.965027 353.821808,278.345398 354.014069,275.768066 
	C354.271179,272.321259 355.069427,268.899139 355.125854,265.458099 
	C355.168243,262.874664 354.036743,260.274353 354.062653,257.687927 
	C354.295898,234.402618 354.800934,211.119476 354.937927,187.834000 
	C354.993591,178.380173 354.028259,168.920380 354.082367,159.466476 
	C354.153320,147.073395 355.066681,134.683578 355.072144,122.292137 
	C355.077301,110.562721 354.330933,98.834175 354.033508,87.102242 
	C353.983673,85.137955 354.535950,83.158394 354.706085,81.933929 
	C353.739563,76.431404 353.103821,71.432373 351.946381,66.557190 
	C350.350189,59.833969 349.450714,52.613194 346.243042,46.694836 
	C342.793243,40.329796 338.019440,34.533958 333.008514,28.935917 
	C328.165161,23.525076 322.378815,20.521305 316.511353,17.344109 
	C311.526703,14.644943 305.887543,13.175044 300.600128,11.009498 
	C292.898254,7.855064 284.923767,7.364201 276.745667,8.050884 
	C273.051605,8.361063 269.318878,8.438372 265.612488,8.327489 
	C257.936584,8.097850 250.268967,7.596063 242.593353,7.349169 
	C236.002579,7.137171 229.402496,7.213107 222.811966,6.996521 
	C216.912613,6.802649 211.022781,6.334191 205.124741,6.079946 
	C200.839706,5.895234 195.780273,12.287389 195.812531,17.781620 
	C195.852341,24.563122 195.942108,31.344332 196.229553,38.573421 
z"/>
<path fill="#464647" opacity="1.000000" stroke="none" 
	d="
M73.536644,141.217224 
	C86.479485,141.400040 99.421875,141.683090 112.365280,141.742249 
	C131.968781,141.831848 151.572998,141.765656 171.638962,141.765656 
	C172.080627,146.162949 172.821640,150.230331 172.842804,154.301453 
	C172.958725,176.613083 173.028030,198.927002 172.794373,221.236801 
	C172.744415,226.008987 174.089874,227.518295 178.923920,227.471985 
	C201.900085,227.251877 224.879532,227.373642 247.857803,227.373703 
	C249.447388,227.373703 251.036972,227.373703 252.430389,227.373703 
	C250.567932,236.626663 243.684097,241.659470 237.882385,247.477570 
	C218.365204,267.049957 198.835846,286.610413 179.233170,306.097015 
	C174.904236,310.400330 172.564133,315.051422 172.761276,321.475922 
	C173.148972,334.109833 172.744141,346.768127 171.939575,359.736694 
	C144.171814,360.014740 117.131653,359.956757 90.091530,359.975800 
	C88.727448,359.976776 87.363831,360.643341 86.000000,361.000000 
	C84.285645,361.000000 82.571281,361.000000 80.250854,360.625549 
	C73.473976,359.398560 67.303177,358.546051 60.849945,357.461823 
	C55.716732,355.608490 50.865944,353.986908 45.788696,352.153778 
	C29.076302,343.782715 17.199017,331.124847 9.134139,314.328857 
	C7.450643,309.281555 5.829860,304.590057 4.220771,299.475220 
	C3.546635,293.668762 2.878221,288.283356 2.167541,282.903503 
	C1.818810,280.263641 1.391659,277.634186 1.000000,275.000000 
	C1.000000,266.312439 1.000000,257.624878 1.326668,248.199631 
	C1.724024,235.012985 1.794711,222.564011 1.899633,209.640381 
	C1.949185,178.508484 1.977417,147.851227 1.938179,117.194046 
	C1.936389,115.795631 1.326605,114.397995 0.999999,113.000000 
	C1.000000,103.312439 1.000000,93.624878 1.324305,83.370293 
	C1.890732,81.505913 2.132854,80.208565 2.621496,78.833817 
	C2.712927,78.415405 2.557838,78.074371 2.360151,77.331223 
	C2.673992,74.589294 3.030431,72.249481 3.619030,69.852249 
	C3.977290,69.702705 4.103389,69.610573 4.229487,69.518440 
	C4.025714,69.293098 3.821942,69.067749 3.600349,68.427002 
	C5.109586,61.785309 6.636645,55.559029 8.413143,49.086010 
	C12.831487,39.718086 17.822718,31.024706 25.539139,24.523411 
	C31.941828,19.128969 39.094780,14.625024 46.252335,9.602274 
	C51.062172,7.917964 55.535030,6.357961 60.379204,4.804346 
	C62.344631,4.542363 63.947758,4.318458 65.531166,3.997321 
	C70.358192,3.018335 75.177620,2.001875 80.000000,1.000000 
	C88.687561,1.000000 97.375130,1.000000 106.801300,1.325704 
	C115.828896,2.070864 124.115982,2.548748 132.409805,2.820683 
	C133.252396,2.848309 134.135635,1.636592 135.000000,1.000000 
	C136.388885,1.000000 137.777786,1.000000 139.878143,1.294922 
	C147.681061,1.717240 154.772842,1.945415 161.863754,1.920823 
	C164.576874,1.911414 167.287979,1.324012 170.000000,1.000000 
	C170.000000,1.000000 170.500000,1.000000 170.750000,0.999999 
	C171.338440,2.103065 171.676880,3.206132 172.070419,4.949888 
	C172.148758,6.025027 172.172012,6.459475 172.109085,7.362605 
	C172.023422,15.472125 171.889511,23.116220 172.074493,30.752592 
	C172.186859,35.391754 170.583191,38.909389 167.277527,42.198021 
	C135.902359,73.411568 104.650009,104.748543 73.312790,136.000320 
	C71.926811,137.382507 70.062782,138.285355 68.421425,139.411469 
	C68.760986,139.876175 69.100540,140.340866 69.440094,140.805573 
	C70.207336,140.915802 70.974571,141.026031 72.187889,141.181473 
	C72.930275,141.187393 73.226585,141.148087 73.531990,141.135162 
	C73.541084,141.161560 73.536644,141.217224 73.536644,141.217224 
M222.687225,251.920746 
	C225.390610,249.339127 228.188202,246.847031 230.760437,244.140762 
	C232.199020,242.627213 233.320953,240.796005 234.478745,239.037613 
	C235.408951,237.624863 236.178528,236.106369 237.019394,234.634781 
	C235.471420,233.756393 233.943100,232.161148 232.372192,232.118057 
	C223.385956,231.871597 214.389526,231.970612 205.396698,231.998123 
	C196.533890,232.025253 187.656021,232.419205 178.817093,231.988541 
	C175.878952,231.845383 171.399796,230.339859 170.512634,228.238266 
	C168.871201,224.349808 163.662827,221.050018 166.823547,215.665146 
	C166.971771,215.412613 166.333679,214.789505 166.290451,214.318008 
	C166.098648,212.227142 165.826004,210.124084 165.883301,208.033691 
	C166.041534,202.259796 166.456970,196.491562 166.538452,190.717804 
	C166.565018,188.834763 165.542206,186.936783 165.569595,185.053925 
	C165.727707,174.187927 166.088776,163.324936 166.259140,152.459000 
	C166.271118,151.694534 165.390671,150.834900 164.775665,150.154709 
	C160.238449,145.136734 154.550293,146.139740 148.622498,146.535110 
	C140.530243,147.074875 132.369110,146.526596 124.238029,146.563034 
	C120.227234,146.581009 116.212967,147.072327 112.208488,146.982635 
	C104.707626,146.814590 97.118538,145.511292 89.743149,146.311554 
	C83.017212,147.041336 77.017624,146.850464 70.642647,144.326294 
	C67.134979,142.937424 65.754448,141.069168 66.311142,138.141846 
	C66.803665,135.551987 67.187012,132.874374 69.714470,130.600464 
	C76.851814,124.179153 83.446884,117.151222 90.190147,110.297890 
	C92.522888,107.927071 94.663078,105.366798 96.891228,102.893059 
	C97.016182,102.967918 97.141136,103.042778 97.266090,103.117638 
	C99.169044,100.870964 101.071991,98.624283 102.524757,96.909111 
	C107.894432,91.869850 112.949341,87.312386 117.787285,82.535194 
	C123.005890,77.382126 128.021484,72.023460 133.905228,65.949707 
	C136.127213,65.963455 136.127213,65.963455 137.711960,61.495495 
	C144.295059,57.654850 148.237869,52.921478 152.000351,47.999630 
	C152.000351,47.999630 151.994354,48.008492 152.690598,47.920898 
	C156.911713,43.265388 161.851379,39.051388 165.084763,33.788986 
	C167.028229,30.625959 166.484299,25.838549 166.722488,21.761534 
	C166.855194,19.490181 165.934082,17.147655 166.125168,14.891173 
	C166.638809,8.825645 163.543625,5.079563 157.391602,5.171521 
	C147.142746,5.324717 136.896744,5.664100 126.649239,5.912657 
	C120.597710,6.059439 114.546158,6.220777 108.493637,6.307452 
	C97.866684,6.459635 87.191330,5.988183 76.627251,6.869137 
	C68.730705,7.527643 60.833065,9.419056 53.213345,11.691666 
	C48.516602,13.092487 44.032784,15.813401 40.010818,18.714470 
	C35.164150,22.210402 30.832933,26.443459 26.413975,30.504740 
	C19.149868,37.180882 14.490937,45.558430 11.738148,54.893471 
	C10.328087,59.675159 9.924287,64.753166 9.057644,69.695831 
	C8.864473,70.797531 8.603469,71.888008 8.431717,72.992676 
	C7.609892,78.278442 6.455958,83.543282 6.092679,88.861496 
	C5.684941,94.830566 5.899486,100.850952 6.025917,106.845161 
	C6.148578,112.660599 6.585854,118.469101 6.729697,124.284485 
	C6.848984,129.107132 6.734376,133.935349 6.738434,138.761093 
	C6.741640,142.572327 6.930526,146.391571 6.742478,150.192703 
	C6.506700,154.958633 5.617572,159.712799 5.659643,164.466309 
	C5.704203,169.500977 6.757337,174.523102 6.876194,179.562332 
	C6.932195,181.936676 5.307284,184.353729 5.376981,186.723999 
	C5.490227,190.575256 6.782950,194.397430 6.843693,198.243484 
	C6.985319,207.210831 6.705042,216.185303 6.567934,225.156464 
	C6.392884,236.610306 5.998519,248.065125 6.081413,259.516754 
	C6.122483,265.190430 6.991750,270.860657 7.537088,276.527557 
	C8.273128,284.176117 8.976393,291.829803 9.890557,299.457672 
	C10.074709,300.994232 11.483008,302.368500 11.738299,303.914764 
	C12.997528,311.541870 16.124542,318.304901 20.914068,324.290710 
	C22.391682,326.137390 24.672630,327.392151 25.954794,329.334442 
	C29.398245,334.550812 33.714268,338.753815 39.000042,342.000000 
	C39.000042,342.000000 38.991219,341.993408 39.227497,342.517975 
	C47.538868,345.805145 55.661057,349.766937 64.221092,352.167389 
	C71.149826,354.110382 78.586433,354.686951 85.831726,354.956451 
	C97.905350,355.405457 110.008339,354.989807 122.094902,355.187042 
	C134.566650,355.390564 147.034424,356.126526 159.501938,356.081512 
	C162.310425,356.071350 165.900528,354.704620 166.005783,350.422333 
	C166.148758,344.605286 166.322144,338.788666 166.530869,332.973602 
	C166.768097,326.364380 166.917374,319.747253 167.373535,313.152161 
	C167.702393,308.397614 169.458481,304.217499 173.206680,300.937439 
	C177.498367,297.181793 181.627335,293.236847 185.758575,289.302277 
	C189.055252,286.162567 192.338058,282.999023 195.464600,279.692505 
	C198.746811,276.221344 201.835632,272.567261 205.000015,269.000000 
	C205.000015,269.000000 204.993393,269.008789 205.625183,268.736298 
	C207.812973,266.544861 210.020966,264.373169 212.183777,262.157410 
	C215.475204,258.785400 218.735352,255.382858 222.000000,252.000000 
	C222.000000,252.000000 221.993164,252.008942 222.687225,251.920746 
M7.412683,69.483185 
	C7.412683,69.483185 7.522819,69.417717 7.412683,69.483185 
M5.587313,157.516830 
	C5.587313,157.516830 5.477175,157.582306 5.587313,157.516830 
M6.516823,81.412682 
	C6.516823,81.412682 6.582297,81.522797 6.516823,81.412682 
M5.516823,121.412682 
	C5.516823,121.412682 5.582297,121.522797 5.516823,121.412682 
M5.483177,123.587318 
	C5.483177,123.587318 5.417703,123.477203 5.483177,123.587318 
M5.587313,131.516830 
	C5.587313,131.516830 5.477175,131.582306 5.587313,131.516830 
M5.587313,139.516830 
	C5.587313,139.516830 5.477175,139.582306 5.587313,139.516830 
M5.412687,147.483170 
	C5.412687,147.483170 5.522825,147.417694 5.412687,147.483170 
M5.483166,149.587311 
	C5.483166,149.587311 5.417701,149.477188 5.483166,149.587311 
M5.412687,159.483170 
	C5.412687,159.483170 5.522825,159.417694 5.412687,159.483170 
z"/>
<path fill="#FCFCFC" opacity="1.000000" stroke="none" 
	d="
M45.915359,9.726583 
	C39.094780,14.625024 31.941828,19.128969 25.539139,24.523411 
	C17.822718,31.024706 12.831487,39.718086 8.294489,48.774895 
	C7.047568,44.152889 3.415951,46.629692 1.000000,46.000000 
	C1.000000,41.310745 1.000000,36.621490 1.467189,31.465183 
	C6.333592,30.836300 12.565291,32.349621 14.648560,30.070686 
	C17.026447,27.469471 15.711219,21.491173 15.996407,16.980160 
	C16.017078,16.653179 16.001194,16.323887 16.001137,15.997958 
	C15.999969,16.000246 15.995657,16.002312 16.463287,16.000551 
	C21.330372,15.837650 27.560846,17.351971 29.646032,15.073181 
	C32.024277,12.474122 30.709761,6.494954 30.995474,1.984458 
	C31.016184,1.657522 30.999369,1.328208 31.000000,1.000000 
	C35.689255,1.000000 40.378513,1.000000 45.536095,1.440524 
	C45.974731,4.496226 45.945045,7.111404 45.915359,9.726583 
z"/>
<path fill="#EDEEEE" opacity="1.000000" stroke="none" 
	d="
M9.196853,314.684692 
	C17.199017,331.124847 29.076302,343.782715 45.773464,352.652161 
	C45.989796,355.908020 45.994896,358.454010 46.000000,361.000000 
	C41.310745,361.000000 36.621490,361.000000 31.466522,360.532806 
	C30.723206,355.549164 32.052708,349.582428 29.681746,346.955078 
	C27.622684,344.673370 21.376257,346.169708 16.980286,345.999084 
	C16.652431,345.986359 16.323736,345.995422 15.997686,345.997162 
	C15.999940,346.000000 16.005661,346.004700 16.004040,345.537048 
	C15.841330,340.668732 17.356194,334.436462 15.076845,332.350800 
	C12.477195,329.972046 6.496388,331.287262 1.984711,331.001831 
	C1.657743,330.981140 1.328295,330.999664 1.000000,331.000000 
	C1.000000,326.310760 1.000000,321.621490 1.440583,316.467834 
	C4.319728,315.563843 6.758291,315.124268 9.196853,314.684692 
z"/>
<path fill="#EEEDED" opacity="1.000000" stroke="none" 
	d="
M352.374847,46.036385 
	C344.447357,30.044519 332.737091,17.830130 316.245789,9.464258 
	C315.985931,6.203320 315.992981,3.601660 316.000000,1.000000 
	C320.689240,1.000000 325.378510,1.000000 330.533264,1.467194 
	C331.276337,6.451003 329.946655,12.417936 332.317657,15.045439 
	C334.376678,17.327213 340.623444,15.830822 345.019562,16.001455 
	C345.347412,16.014181 345.676147,16.005140 346.002502,16.003252 
	C346.000549,16.000286 345.993805,15.995611 345.995087,16.463079 
	C346.157654,21.331383 344.643036,27.563774 346.922607,29.649639 
	C349.522369,32.028458 355.503387,30.713203 360.015259,30.998516 
	C360.342224,31.019196 360.671692,31.000427 361.000000,31.000000 
	C361.000000,35.689255 361.000000,40.378513 360.561829,45.531975 
	C357.540710,46.009579 354.957794,46.022980 352.374847,46.036385 
z"/>
<path fill="#EEEFEF" opacity="1.000000" stroke="none" 
	d="
M16.000000,361.000000 
	C11.075477,361.000000 6.150953,361.000000 1.000000,361.000000 
	C1.000000,356.316681 1.000000,351.630981 1.466124,346.472656 
	C6.623385,346.001556 11.314524,346.003113 16.005661,346.004700 
	C16.005661,346.004700 15.999940,346.000000 15.999339,346.463898 
	C15.999159,351.618530 15.999579,356.309265 16.000000,361.000000 
z"/>
<path fill="#EEEFEF" opacity="1.000000" stroke="none" 
	d="
M361.000000,331.000000 
	C361.000000,335.689240 361.000000,340.378510 360.533875,345.533875 
	C355.376862,345.998352 350.686005,345.996735 345.997559,345.997559 
	C346.000000,346.000000 346.002441,346.002441 346.003052,345.536041 
	C346.002441,340.378540 346.001221,335.687439 346.466125,330.998169 
	C351.621490,331.000000 356.310760,331.000000 361.000000,331.000000 
z"/>
<path fill="#FEFEFE" opacity="1.000000" stroke="none" 
	d="
M16.466118,361.000000 
	C15.999579,356.309265 15.999159,351.618530 15.997086,346.461060 
	C16.323736,345.995422 16.652431,345.986359 16.980286,345.999084 
	C21.376257,346.169708 27.622684,344.673370 29.681746,346.955078 
	C32.052708,349.582428 30.723206,355.549164 31.000404,360.532806 
	C26.310745,361.000000 21.621489,361.000000 16.466118,361.000000 
z"/>
<path fill="#FEFEFE" opacity="1.000000" stroke="none" 
	d="
M16.004040,345.537048 
	C11.314524,346.003113 6.623385,346.001556 1.466124,346.000000 
	C1.000000,341.310760 1.000000,336.621490 1.000000,331.466125 
	C1.328295,330.999664 1.657743,330.981140 1.984711,331.001831 
	C6.496388,331.287262 12.477195,329.972046 15.076845,332.350800 
	C17.356194,334.436462 15.841330,340.668732 16.004040,345.537048 
z"/>
<path fill="#EEEFEF" opacity="1.000000" stroke="none" 
	d="
M16.002306,15.995670 
	C16.001194,16.323887 16.017078,16.653179 15.996407,16.980160 
	C15.711219,21.491173 17.026447,27.469471 14.648560,30.070686 
	C12.565291,32.349621 6.333592,30.836300 1.467189,30.999065 
	C1.000000,26.310745 1.000000,21.621489 1.466120,16.466118 
	C6.622262,15.998556 11.312284,15.997113 16.002306,15.995670 
z"/>
<path fill="#FEFEFE" opacity="1.000000" stroke="none" 
	d="
M361.000000,30.533882 
	C360.671692,31.000427 360.342224,31.019196 360.015259,30.998516 
	C355.503387,30.713203 349.522369,32.028458 346.922607,29.649639 
	C344.643036,27.563774 346.157654,21.331383 346.461914,16.464666 
	C351.618286,15.999189 356.309143,15.999595 361.000000,16.000000 
	C361.000000,20.689255 361.000000,25.378511 361.000000,30.533882 
z"/>
<path fill="#FEFEFE" opacity="1.000000" stroke="none" 
	d="
M16.001137,15.997958 
	C11.312284,15.997113 6.622262,15.998556 1.466120,16.000000 
	C1.000000,11.075478 1.000000,6.150956 1.000000,1.000000 
	C5.683317,1.000000 10.368995,1.000000 15.527336,1.466120 
	C15.998552,6.622263 15.997105,11.312287 15.995657,16.002312 
	C15.995657,16.002312 15.999969,16.000246 16.001137,15.997958 
z"/>
<path fill="#EEEFEF" opacity="1.000000" stroke="none" 
	d="
M346.000000,361.000000 
	C341.310760,361.000000 336.621490,361.000000 331.466797,360.533875 
	C330.999664,355.378510 330.997986,350.689240 331.462891,346.001465 
	C336.620453,346.002747 341.311432,346.002594 346.002441,346.002441 
	C346.002441,346.002441 346.000000,346.000000 345.999329,346.464233 
	C345.999084,351.618988 345.999542,356.309479 346.000000,361.000000 
z"/>
<path fill="#EEEFEF" opacity="1.000000" stroke="none" 
	d="
M16.463287,16.000551 
	C15.997105,11.312287 15.998552,6.622263 16.000000,1.466120 
	C20.689255,1.000000 25.378511,1.000000 30.533884,1.000000 
	C30.999369,1.328208 31.016184,1.657522 30.995474,1.984458 
	C30.709761,6.494954 32.024277,12.474122 29.646032,15.073181 
	C27.560846,17.351971 21.330372,15.837650 16.463287,16.000551 
z"/>
<path fill="#EEEFEF" opacity="1.000000" stroke="none" 
	d="
M361.000000,15.527336 
	C356.309143,15.999595 351.618286,15.999189 346.460632,15.997198 
	C345.993805,15.995611 346.000549,16.000286 346.000916,15.536444 
	C346.000885,10.381734 346.000427,5.690867 346.000000,1.000000 
	C350.924530,1.000000 355.849030,1.000000 361.000000,1.000000 
	C361.000000,5.683316 361.000000,10.368995 361.000000,15.527336 
z"/>
<path fill="#FEFEFE" opacity="1.000000" stroke="none" 
	d="
M345.533875,1.000000 
	C346.000427,5.690867 346.000885,10.381734 346.002869,15.539410 
	C345.676147,16.005140 345.347412,16.014181 345.019562,16.001455 
	C340.623444,15.830822 334.376678,17.327213 332.317657,15.045439 
	C329.946655,12.417936 331.276337,6.451003 330.999390,1.467194 
	C335.689240,1.000000 340.378510,1.000000 345.533875,1.000000 
z"/>
<path fill="#FEFEFE" opacity="1.000000" stroke="none" 
	d="
M346.472656,361.000000 
	C345.999542,356.309479 345.999084,351.618988 345.996887,346.461792 
	C350.686005,345.996735 355.376862,345.998352 360.533875,346.000000 
	C361.000000,350.924530 361.000000,355.849030 361.000000,361.000000 
	C356.316681,361.000000 351.630981,361.000000 346.472656,361.000000 
z"/>
<path fill="#EB8970" opacity="1.000000" stroke="none" 
	d="
M361.000000,275.531342 
	C360.667450,274.614075 360.045288,273.228455 360.043976,271.842224 
	C359.987457,211.066437 359.983826,150.290634 359.995239,89.514824 
	C359.995422,88.539215 360.260834,87.563660 360.701233,86.294037 
	C361.000000,149.020889 361.000000,212.041794 361.000000,275.531342 
z"/>
<path fill="#FDFCFC" opacity="1.000000" stroke="none" 
	d="
M330.996338,346.000000 
	C330.997986,350.689240 330.999664,355.378510 331.000671,360.533875 
	C326.310760,361.000000 321.621490,361.000000 316.463867,360.546478 
	C315.964386,357.652771 315.933289,355.212555 315.902191,352.772369 
	C319.648376,350.537476 323.394592,348.302582 327.875061,346.020813 
	C329.404999,345.982635 330.200684,345.991302 330.996338,346.000000 
z"/>
<path fill="#FDFCFC" opacity="1.000000" stroke="none" 
	d="
M361.000000,330.533875 
	C356.310760,331.000000 351.621490,331.000000 346.466064,330.600464 
	C345.975555,329.405334 345.951172,328.609711 345.926819,327.814117 
	C348.032013,323.982819 350.137207,320.151520 352.967224,316.136841 
	C356.128052,315.968964 358.564026,315.984497 361.000000,316.000000 
	C361.000000,320.689240 361.000000,325.378510 361.000000,330.533875 
z"/>
<path fill="#F4F4F4" opacity="1.000000" stroke="none" 
	d="
M1.000000,46.468658 
	C3.415951,46.629692 7.047568,44.152889 8.045050,49.021629 
	C6.636645,55.559029 5.109586,61.785309 3.454479,68.674774 
	C3.346578,69.528526 3.366724,69.719093 3.386870,69.909668 
	C3.030431,72.249481 2.673992,74.589294 2.287624,77.624374 
	C2.296789,78.516830 2.335882,78.714020 2.374976,78.911209 
	C2.132854,80.208565 1.890732,81.505913 1.324305,82.901634 
	C1.000000,70.979103 1.000000,58.958210 1.000000,46.468658 
z"/>
<path fill="#DA7E65" opacity="1.000000" stroke="none" 
	d="
M190.272552,319.902374 
	C190.508804,323.179688 190.909271,326.455017 190.948944,329.734711 
	C191.047440,337.882202 191.215195,346.041046 190.888657,354.176605 
	C190.709106,358.649567 191.900635,360.158691 196.640411,360.107117 
	C219.420609,359.858948 242.205078,359.992340 264.987976,360.022400 
	C266.795929,360.024780 268.603516,360.272217 270.705627,360.702881 
	C244.312439,361.000000 217.624878,361.000000 190.465271,360.531342 
	C190.086334,346.675903 190.179443,333.289154 190.272552,319.902374 
z"/>
<path fill="#676868" opacity="1.000000" stroke="none" 
	d="
M0.999999,113.468658 
	C1.326605,114.397995 1.936389,115.795631 1.938179,117.194046 
	C1.977417,147.851227 1.949185,178.508484 1.683763,209.609955 
	C1.433659,210.054169 1.000000,210.000000 1.000000,210.000000 
	C1.000000,177.979111 1.000000,145.958206 0.999999,113.468658 
z"/>
<path fill="#FAFAFA" opacity="1.000000" stroke="none" 
	d="
M9.134140,314.328857 
	C6.758291,315.124268 4.319728,315.563843 1.440583,316.001709 
	C1.000000,311.310760 1.000000,306.621490 1.340497,301.429810 
	C2.523688,300.584442 3.366381,300.241486 4.209075,299.898560 
	C5.829860,304.590057 7.450643,309.281555 9.134140,314.328857 
z"/>
<path fill="#FCFAFA" opacity="1.000000" stroke="none" 
	d="
M315.533875,1.000000 
	C315.992981,3.601660 315.985931,6.203320 315.969482,9.229002 
	C311.545685,8.137573 307.131287,6.622121 302.211365,4.778579 
	C301.431885,4.214126 301.120819,4.145339 300.772675,4.244126 
	C300.772675,4.244126 300.774261,4.304701 300.829834,3.896780 
	C300.923615,2.659240 300.961792,1.829620 301.000000,1.000000 
	C305.689240,1.000000 310.378510,1.000000 315.533875,1.000000 
z"/>
<path fill="#A4A5A5" opacity="1.000000" stroke="none" 
	d="
M190.206741,319.669617 
	C190.179443,333.289154 190.086334,346.675903 189.996613,360.531342 
	C190.000000,361.000000 189.500000,361.000000 189.250000,361.000000 
	C188.480606,357.418091 187.608856,353.845428 187.514297,350.252319 
	C187.310318,342.502594 187.361969,334.737549 187.618958,326.989075 
	C187.703613,324.436768 188.741623,321.916107 189.649750,319.185425 
	C189.955826,318.989838 190.140930,319.436829 190.206741,319.669617 
z"/>
<path fill="#ECEDEC" opacity="1.000000" stroke="none" 
	d="
M46.252335,9.602274 
	C45.945045,7.111404 45.974731,4.496226 46.002213,1.440524 
	C50.689255,1.000000 55.378513,1.000000 60.500710,1.328282 
	C60.625065,2.703696 60.316479,3.750827 60.007893,4.797958 
	C55.535030,6.357961 51.062172,7.917964 46.252335,9.602274 
z"/>
<path fill="#FAFAFA" opacity="1.000000" stroke="none" 
	d="
M46.466118,361.000000 
	C45.994896,358.454010 45.989796,355.908020 45.999924,352.863647 
	C50.865944,353.986908 55.716732,355.608490 60.821590,357.874603 
	C61.050442,359.346100 61.025223,360.173035 61.000000,361.000000 
	C56.310745,361.000000 51.621487,361.000000 46.466118,361.000000 
z"/>
<path fill="#FCFAF9" opacity="1.000000" stroke="none" 
	d="
M352.480713,46.359337 
	C354.957794,46.022980 357.540710,46.009579 360.561829,45.998089 
	C361.000000,50.689255 361.000000,55.378513 360.612732,60.539814 
	C359.450806,61.020611 358.676117,61.029362 357.901428,61.038109 
	C356.129791,56.252838 354.358185,51.467567 352.480713,46.359337 
z"/>
<path fill="#EDECEB" opacity="1.000000" stroke="none" 
	d="
M315.529785,352.840759 
	C315.933289,355.212555 315.964386,357.652771 315.997742,360.546478 
	C311.310760,361.000000 306.621490,361.000000 301.468201,360.610535 
	C300.989441,359.442230 300.974701,358.663391 300.959961,357.884583 
	C305.692474,356.226105 310.424927,354.567627 315.529785,352.840759 
z"/>
<path fill="#EDECEB" opacity="1.000000" stroke="none" 
	d="
M361.000000,315.533875 
	C358.564026,315.984497 356.128052,315.968964 353.231903,315.928101 
	C354.315613,311.106415 355.859497,306.310089 358.033264,301.251160 
	C359.442108,300.992340 360.221039,300.996185 361.000000,301.000000 
	C361.000000,305.689240 361.000000,310.378510 361.000000,315.533875 
z"/>
<path fill="#6A6B6B" opacity="1.000000" stroke="none" 
	d="
M86.468658,361.000000 
	C87.363831,360.643341 88.727448,359.976776 90.091530,359.975800 
	C117.131653,359.956757 144.171814,360.014740 171.692047,360.075836 
	C172.172104,360.094574 172.244156,360.577362 172.122070,360.788696 
	C143.645767,361.000000 115.291542,361.000000 86.468658,361.000000 
z"/>
<path fill="#EDE9E7" opacity="1.000000" stroke="none" 
	d="
M300.531342,1.000000 
	C300.961792,1.829620 300.923615,2.659240 300.799713,3.900017 
	C291.138824,3.525324 281.563629,2.739473 271.501526,1.694040 
	C271.014618,1.434458 271.000000,1.000000 271.000000,1.000000 
	C280.687561,1.000000 290.375122,1.000000 300.531342,1.000000 
z"/>
<path fill="#EDEEEE" opacity="1.000000" stroke="none" 
	d="
M4.220770,299.475220 
	C3.366381,300.241486 2.523688,300.584442 1.340497,300.963684 
	C1.000000,292.645782 1.000000,284.291534 1.000000,275.468658 
	C1.391659,277.634186 1.818810,280.263641 2.167541,282.903503 
	C2.878221,288.283356 3.546635,293.668762 4.220770,299.475220 
z"/>
<path fill="#F3F2F2" opacity="1.000000" stroke="none" 
	d="
M60.379204,4.804346 
	C60.316479,3.750827 60.625065,2.703696 60.966827,1.328282 
	C67.021156,1.000000 73.042305,1.000000 79.531731,1.000000 
	C75.177620,2.001875 70.358192,3.018335 65.531166,3.997321 
	C63.947758,4.318458 62.344631,4.542363 60.379204,4.804346 
z"/>
<path fill="#EB8970" opacity="1.000000" stroke="none" 
	d="
M233.531342,1.000001 
	C233.439072,1.310083 232.876892,1.892843 232.317398,1.890279 
	C219.074356,1.829575 205.831604,1.705868 192.294403,1.296840 
	C205.687561,1.000000 219.375122,1.000000 233.531342,1.000001 
z"/>
<path fill="#909192" opacity="1.000000" stroke="none" 
	d="
M1.000000,210.468658 
	C1.000000,210.000000 1.433659,210.054169 1.649529,210.084595 
	C1.794711,222.564011 1.724024,235.012985 1.326668,247.730988 
	C1.000000,235.645767 1.000000,223.291550 1.000000,210.468658 
z"/>
<path fill="#EDE7E6" opacity="1.000000" stroke="none" 
	d="
M357.876709,61.463848 
	C358.676117,61.029362 359.450806,61.020611 360.612732,61.005928 
	C361.000000,67.354401 361.000000,73.708794 361.000000,80.531601 
	C359.950653,74.629860 358.901306,68.259727 357.876709,61.463848 
z"/>
<path fill="#ECEDEC" opacity="1.000000" stroke="none" 
	d="
M61.468269,361.000000 
	C61.025223,360.173035 61.050442,359.346100 61.104019,358.106354 
	C67.303177,358.546051 73.473976,359.398560 79.822388,360.625549 
	C73.978851,361.000000 67.957695,361.000000 61.468269,361.000000 
z"/>
<path fill="#F7F2F0" opacity="1.000000" stroke="none" 
	d="
M300.533630,357.861023 
	C300.974701,358.663391 300.989441,359.442230 301.002075,360.610535 
	C295.645081,361.000000 290.290131,361.000000 284.467590,361.000000 
	C289.369080,359.945801 294.738190,358.891632 300.533630,357.861023 
z"/>
<path fill="#F7F2F0" opacity="1.000000" stroke="none" 
	d="
M361.000000,300.532410 
	C360.221039,300.996185 359.442108,300.992340 358.273865,300.974274 
	C358.685364,295.430237 359.486145,289.900452 360.643463,284.185333 
	C361.000000,289.354919 361.000000,294.709869 361.000000,300.532410 
z"/>
<path fill="#E5B9AE" opacity="1.000000" stroke="none" 
	d="
M270.531342,1.000000 
	C271.000000,1.000000 271.014618,1.434458 271.039551,1.650308 
	C260.551575,1.798201 250.038666,1.730245 239.262878,1.331144 
	C249.354233,1.000000 259.708466,1.000000 270.531342,1.000000 
z"/>
<path fill="#919293" opacity="1.000000" stroke="none" 
	d="
M134.531342,1.000000 
	C134.135635,1.636592 133.252396,2.848309 132.409805,2.820683 
	C124.115982,2.548748 115.828896,2.070864 107.269951,1.325704 
	C116.020897,1.000000 125.041786,1.000000 134.531342,1.000000 
z"/>
<path fill="#6A6B6B" opacity="1.000000" stroke="none" 
	d="
M169.531342,1.000000 
	C167.287979,1.324012 164.576874,1.911414 161.863754,1.920823 
	C154.772842,1.945415 147.681061,1.717240 140.294800,1.294922 
	C149.687561,1.000000 159.375122,1.000000 169.531342,1.000000 
z"/>
<path fill="#A2A2A3" opacity="1.000000" stroke="none" 
	d="
M190.012390,131.197189 
	C190.034668,156.180984 190.171875,181.165665 189.978073,206.147797 
	C189.941223,210.897736 191.517792,212.080566 196.040436,211.996368 
	C211.303741,211.712234 226.574829,211.875778 241.842377,211.780106 
	C254.693069,211.699585 267.542877,211.485382 280.393372,211.355682 
	C283.330750,211.326035 286.284821,211.234436 289.199554,211.508270 
	C290.378479,211.619019 292.361420,212.571671 292.407623,213.248459 
	C292.486969,214.411163 291.333893,215.657974 290.386139,217.025085 
	C288.592255,216.381256 287.111389,214.887115 285.628357,214.884979 
	C255.839233,214.842117 226.049927,214.991989 196.260529,215.049286 
	C189.515213,215.062256 187.482300,213.175613 187.472015,206.607803 
	C187.436142,183.696121 187.490433,160.784119 187.580811,137.872513 
	C187.610260,130.409470 186.444733,129.089233 178.739990,129.076965 
	C157.930664,129.043823 137.119919,129.173141 116.313721,128.915710 
	C113.973312,128.886765 111.658440,126.794098 109.402542,125.373878 
	C113.032532,125.180550 116.591698,125.271782 120.629181,125.640610 
	C124.713516,127.334427 128.291107,128.404572 131.506226,125.063721 
	C131.506226,125.063721 131.497543,125.000610 131.650818,125.439995 
	C133.673050,126.265030 135.539688,126.971916 137.411316,126.985367 
	C151.994949,127.090126 166.580353,127.150459 181.163239,127.013443 
	C184.961060,126.977760 187.955673,127.906776 190.012390,131.197189 
z"/>
<path fill="#A2A2A3" opacity="1.000000" stroke="none" 
	d="
M71.741814,141.136261 
	C70.974571,141.026031 70.207336,140.915802 69.440094,140.805573 
	C69.100540,140.340866 68.760986,139.876175 68.421425,139.411469 
	C70.062782,138.285355 71.926811,137.382507 73.312790,136.000320 
	C104.650009,104.748543 135.902359,73.411568 167.277527,42.198021 
	C170.583191,38.909389 172.186859,35.391754 172.074493,30.752592 
	C171.889511,23.116220 172.023422,15.472125 172.486664,7.493545 
	C173.289459,8.854774 173.883011,10.547622 173.924057,12.253765 
	C174.114914,20.185598 174.152802,28.121113 174.245422,36.055309 
	C172.447159,38.948849 171.118759,42.308891 168.779373,44.665184 
	C138.960892,74.699188 108.990471,104.582314 79.087395,134.532486 
	C77.213562,136.409271 75.578285,138.524261 73.684326,140.872833 
	C73.536644,141.217224 73.541084,141.161560 73.299652,141.003113 
	C72.619423,140.941864 72.180618,141.039062 71.741814,141.136261 
z"/>
<path fill="#A4A5A5" opacity="1.000000" stroke="none" 
	d="
M189.615829,5.144945 
	C189.994110,16.757889 190.086411,28.529345 189.999924,40.299488 
	C189.988968,41.790100 189.040863,43.273827 188.154343,44.973244 
	C187.782623,36.484280 187.620163,27.778484 187.850647,19.083105 
	C187.972672,14.480404 188.778000,9.895818 189.615829,5.144945 
z"/>
<path fill="#DFE0DF" opacity="1.000000" stroke="none" 
	d="
M174.613373,35.926613 
	C174.152802,28.121113 174.114914,20.185598 173.924057,12.253765 
	C173.883011,10.547622 173.289459,8.854774 172.572845,7.024863 
	C172.172012,6.459475 172.148758,6.025027 172.211914,5.274681 
	C173.298859,5.801530 175.158813,6.634865 175.168167,7.488470 
	C175.271500,16.923140 175.087540,26.360954 174.613373,35.926613 
z"/>
<path fill="#EB5E32" opacity="1.000000" stroke="none" 
	d="
M196.119919,38.349545 
	C195.942108,31.344332 195.852341,24.563122 195.812531,17.781620 
	C195.780273,12.287389 200.839706,5.895234 205.124741,6.079946 
	C211.022781,6.334191 216.912613,6.802649 222.811966,6.996521 
	C229.402496,7.213107 236.002579,7.137171 242.593353,7.349169 
	C250.268967,7.596063 257.936584,8.097850 265.612488,8.327489 
	C269.318878,8.438372 273.051605,8.361063 276.745667,8.050884 
	C284.923767,7.364201 292.898254,7.855064 300.600128,11.009498 
	C305.887543,13.175044 311.526703,14.644943 316.511353,17.344109 
	C322.378815,20.521305 328.165161,23.525076 333.008514,28.935917 
	C338.019440,34.533958 342.793243,40.329796 346.243042,46.694836 
	C349.450714,52.613194 350.350189,59.833969 351.946381,66.557190 
	C353.103821,71.432373 353.739563,76.431404 354.706085,81.933929 
	C354.535950,83.158394 353.983673,85.137955 354.033508,87.102242 
	C354.330933,98.834175 355.077301,110.562721 355.072144,122.292137 
	C355.066681,134.683578 354.153320,147.073395 354.082367,159.466476 
	C354.028259,168.920380 354.993591,178.380173 354.937927,187.834000 
	C354.800934,211.119476 354.295898,234.402618 354.062653,257.687927 
	C354.036743,260.274353 355.168243,262.874664 355.125854,265.458099 
	C355.069427,268.899139 354.271179,272.321259 354.014069,275.768066 
	C353.821808,278.345398 354.167938,280.965027 353.946411,283.537598 
	C353.444763,289.363647 353.482910,295.380463 351.925720,300.933899 
	C350.090698,307.478363 347.617645,314.152679 343.911011,319.775055 
	C340.348145,325.179352 334.120758,328.803497 330.424652,334.150299 
	C326.943848,339.185608 321.848602,341.446259 317.165710,344.131439 
	C311.726318,347.250366 305.482117,349.246277 299.352325,350.806976 
	C292.267029,352.611023 284.940582,353.510071 277.686310,354.581848 
	C275.573456,354.894043 273.348480,354.468231 271.176453,354.352051 
	C269.596619,354.267578 268.019287,354.135956 265.988464,353.993652 
	C266.064636,354.223083 265.825378,353.502350 265.991547,354.002960 
	C261.752930,354.002960 258.178589,353.942139 254.606918,354.013519 
	C239.181473,354.321655 223.743851,354.388123 208.336365,355.099365 
	C197.997360,355.576660 194.988571,350.022858 195.064743,341.821503 
	C195.121994,335.656586 195.111389,329.368896 196.326401,323.378326 
	C197.184982,319.144989 199.497238,315.294525 203.597000,312.331207 
	C207.990189,309.155762 211.065414,304.217224 215.027924,300.369598 
	C219.518326,296.009338 224.496201,292.152069 229.002335,287.806732 
	C233.658508,283.316772 237.925690,278.426208 242.504684,273.852722 
	C247.224304,269.138763 252.190399,264.671539 256.908752,259.956360 
	C261.522949,255.345230 265.884186,250.480988 270.497162,245.868576 
	C275.231689,241.134598 280.666870,236.992569 284.796783,231.797623 
	C288.015625,227.748688 293.058655,225.234955 294.616455,219.523804 
	C295.108673,217.719299 297.529266,216.116150 297.761475,213.462280 
	C298.188202,208.584579 294.165161,204.468460 289.262970,204.768906 
	C286.216278,204.955643 283.137482,204.535004 280.073914,204.549927 
	C275.653839,204.571457 271.234833,204.760925 266.814667,204.840271 
	C263.861298,204.893295 260.904114,204.966766 257.953125,204.879578 
	C248.379196,204.596802 238.807449,204.000626 229.234665,203.996323 
	C221.709717,203.992935 214.183868,204.676270 206.659515,205.074982 
	C200.915421,205.379364 197.003357,201.721725 196.999359,195.952942 
	C196.987686,179.125854 197.074295,162.298157 196.944992,145.472061 
	C196.906891,140.513687 197.046875,135.337357 195.694763,130.669479 
	C194.459991,126.406654 191.316727,122.696655 189.014542,118.743019 
	C188.773376,119.124748 188.532211,119.506470 188.291046,119.888199 
	C186.809952,119.333260 184.672989,117.869476 183.962418,118.382263 
	C181.038773,120.492096 178.310669,117.949654 175.251251,118.454712 
	C166.995224,119.817635 158.351532,118.805252 149.861557,118.787994 
	C144.726883,118.777557 139.666855,117.754395 134.440643,119.617683 
	C131.933182,120.511658 128.554245,118.961342 124.263962,118.323975 
	C127.411652,114.491043 129.410538,111.712601 131.758133,109.269180 
	C136.833725,103.986404 142.083725,98.871010 147.270355,93.695145 
	C155.045715,85.935959 162.756638,78.110321 170.633362,70.455322 
	C175.528442,65.698021 181.093353,61.571007 185.599808,56.489094 
	C190.212540,51.287319 195.237305,46.045631 196.119919,38.349545 
z"/>
<path fill="#FAF9F9" opacity="1.000000" stroke="none" 
	d="
M345.643494,328.001556 
	C345.951172,328.609711 345.975555,329.405334 345.999939,330.598633 
	C346.001221,335.687439 346.002441,340.378540 346.003052,345.536041 
	C341.311432,346.002594 336.620453,346.002747 331.462891,346.001465 
	C330.200684,345.991302 329.404999,345.982635 328.211670,345.950409 
	C333.662720,340.014252 339.511475,334.101624 345.643494,328.001556 
z"/>
<path fill="#676868" opacity="1.000000" stroke="none" 
	d="
M190.056793,130.771469 
	C187.955673,127.906776 184.961060,126.977760 181.163239,127.013443 
	C166.580353,127.150459 151.994949,127.090126 137.411316,126.985367 
	C135.539688,126.971916 133.673050,126.265030 131.649170,125.472107 
	C148.480637,125.045944 165.468552,124.903496 182.452011,125.116470 
	C185.697220,125.157166 190.345581,124.563728 190.056793,130.771469 
z"/>
<path fill="#676868" opacity="1.000000" stroke="none" 
	d="
M131.011993,125.037323 
	C128.291107,128.404572 124.713516,127.334427 121.002037,125.534836 
	C124.103630,125.104614 127.310692,125.057770 131.011993,125.037323 
z"/>
<path fill="#EDE9E7" opacity="1.000000" stroke="none" 
	d="
M300.903625,4.457382 
	C301.120819,4.145339 301.431885,4.214126 301.855408,4.647004 
	C301.681519,4.785892 301.358032,4.728265 300.903625,4.457382 
z"/>
<path fill="#313131" opacity="1.000000" stroke="none" 
	d="
M205.008972,268.993103 
	C201.835632,272.567261 198.746811,276.221344 195.464600,279.692505 
	C192.338058,282.999023 189.055252,286.162567 185.758575,289.302277 
	C181.627335,293.236847 177.498367,297.181793 173.206680,300.937439 
	C169.458481,304.217499 167.702393,308.397614 167.373535,313.152161 
	C166.917374,319.747253 166.768097,326.364380 166.530869,332.973602 
	C166.322144,338.788666 166.148758,344.605286 166.005783,350.422333 
	C165.900528,354.704620 162.310425,356.071350 159.501938,356.081512 
	C147.034424,356.126526 134.566650,355.390564 122.094902,355.187042 
	C110.008339,354.989807 97.905350,355.405457 85.831726,354.956451 
	C78.586433,354.686951 71.149826,354.110382 64.221092,352.167389 
	C55.661057,349.766937 47.538868,345.805145 39.237709,342.204468 
	C39.167591,341.930298 39.087261,341.969635 39.006927,342.008972 
	C33.714268,338.753815 29.398245,334.550812 25.954794,329.334442 
	C24.672630,327.392151 22.391682,326.137390 20.914068,324.290710 
	C16.124542,318.304901 12.997528,311.541870 11.738299,303.914764 
	C11.483008,302.368500 10.074709,300.994232 9.890557,299.457672 
	C8.976393,291.829803 8.273128,284.176117 7.537088,276.527557 
	C6.991750,270.860657 6.122483,265.190430 6.081413,259.516754 
	C5.998519,248.065125 6.392884,236.610306 6.567934,225.156464 
	C6.705042,216.185303 6.985319,207.210831 6.843693,198.243484 
	C6.782950,194.397430 5.490227,190.575256 5.376981,186.723999 
	C5.307284,184.353729 6.932195,181.936676 6.876194,179.562332 
	C6.757337,174.523102 5.704203,169.500977 5.659643,164.466309 
	C5.617572,159.712799 6.506700,154.958633 6.742478,150.192703 
	C6.930526,146.391571 6.741640,142.572327 6.738434,138.761093 
	C6.734376,133.935349 6.848984,129.107132 6.729697,124.284485 
	C6.585854,118.469101 6.148578,112.660599 6.025917,106.845161 
	C5.899486,100.850952 5.684941,94.830566 6.092679,88.861496 
	C6.455958,83.543282 7.609892,78.278442 8.431717,72.992676 
	C8.603469,71.888008 8.864473,70.797531 9.057644,69.695831 
	C9.924287,64.753166 10.328087,59.675159 11.738148,54.893471 
	C14.490937,45.558430 19.149868,37.180882 26.413975,30.504740 
	C30.832933,26.443459 35.164150,22.210402 40.010818,18.714470 
	C44.032784,15.813401 48.516602,13.092487 53.213345,11.691666 
	C60.833065,9.419056 68.730705,7.527643 76.627251,6.869137 
	C87.191330,5.988183 97.866684,6.459635 108.493637,6.307452 
	C114.546158,6.220777 120.597710,6.059439 126.649239,5.912657 
	C136.896744,5.664100 147.142746,5.324717 157.391602,5.171521 
	C163.543625,5.079563 166.638809,8.825645 166.125168,14.891173 
	C165.934082,17.147655 166.855194,19.490181 166.722488,21.761534 
	C166.484299,25.838549 167.028229,30.625959 165.084763,33.788986 
	C161.851379,39.051388 156.911713,43.265388 152.224747,47.767761 
	C151.428223,47.625526 151.097549,47.636433 150.766876,47.647339 
	C151.180969,47.761955 151.595047,47.876575 152.009140,47.991192 
	C148.237869,52.921478 144.295059,57.654850 137.711960,61.495495 
	C136.127213,65.963455 136.127213,65.963455 133.905228,65.949707 
	C128.021484,72.023460 123.005890,77.382126 117.787285,82.535194 
	C112.949341,87.312386 107.894432,91.869850 102.524757,96.909111 
	C101.071991,98.624283 99.169044,100.870964 97.266090,103.117638 
	C97.141136,103.042778 97.016182,102.967918 96.891228,102.893059 
	C94.663078,105.366798 92.522888,107.927071 90.190147,110.297890 
	C83.446884,117.151222 76.851814,124.179153 69.714470,130.600464 
	C67.187012,132.874374 66.803665,135.551987 66.311142,138.141846 
	C65.754448,141.069168 67.134979,142.937424 70.642647,144.326294 
	C77.017624,146.850464 83.017212,147.041336 89.743149,146.311554 
	C97.118538,145.511292 104.707626,146.814590 112.208488,146.982635 
	C116.212967,147.072327 120.227234,146.581009 124.238029,146.563034 
	C132.369110,146.526596 140.530243,147.074875 148.622498,146.535110 
	C154.550293,146.139740 160.238449,145.136734 164.775665,150.154709 
	C165.390671,150.834900 166.271118,151.694534 166.259140,152.459000 
	C166.088776,163.324936 165.727707,174.187927 165.569595,185.053925 
	C165.542206,186.936783 166.565018,188.834763 166.538452,190.717804 
	C166.456970,196.491562 166.041534,202.259796 165.883301,208.033691 
	C165.826004,210.124084 166.098648,212.227142 166.290451,214.318008 
	C166.333679,214.789505 166.971771,215.412613 166.823547,215.665146 
	C163.662827,221.050018 168.871201,224.349808 170.512634,228.238266 
	C171.399796,230.339859 175.878952,231.845383 178.817093,231.988541 
	C187.656021,232.419205 196.533890,232.025253 205.396698,231.998123 
	C214.389526,231.970612 223.385956,231.871597 232.372192,232.118057 
	C233.943100,232.161148 235.471420,233.756393 237.019379,234.634796 
	C236.178528,236.106369 235.408951,237.624863 234.478745,239.037613 
	C233.320953,240.796005 232.199020,242.627213 230.760437,244.140762 
	C228.188202,246.847031 225.390610,249.339127 222.292633,251.834839 
	C221.821228,251.700638 221.744415,251.652359 221.667587,251.604095 
	C221.781326,251.733826 221.895065,251.863556 222.008789,251.993286 
	C218.735352,255.382858 215.475204,258.785400 212.183777,262.157410 
	C210.020966,264.373169 207.812973,266.544861 205.258026,268.744263 
	C204.813614,268.705353 204.736374,268.658508 204.659134,268.611633 
	C204.775742,268.738800 204.892349,268.865936 205.008972,268.993103 
z"/>
<path fill="#313131" opacity="1.000000" stroke="none" 
	d="
M2.621496,78.833817 
	C2.335882,78.714020 2.296789,78.516830 2.330222,78.026489 
	C2.557838,78.074371 2.712927,78.415405 2.621496,78.833817 
z"/>
<path fill="#313131" opacity="1.000000" stroke="none" 
	d="
M3.619030,69.852249 
	C3.366724,69.719093 3.346578,69.528526 3.472301,69.090179 
	C3.821942,69.067749 4.025714,69.293098 4.229487,69.518440 
	C4.103389,69.610573 3.977290,69.702705 3.619030,69.852249 
z"/>
<path fill="#313131" opacity="1.000000" stroke="none" 
	d="
M7.467751,69.450455 
	C7.522819,69.417717 7.412683,69.483185 7.467751,69.450455 
z"/>
<path fill="#313131" opacity="1.000000" stroke="none" 
	d="
M5.532244,157.549561 
	C5.477175,157.582306 5.587313,157.516830 5.532244,157.549561 
z"/>
<path fill="#313131" opacity="1.000000" stroke="none" 
	d="
M6.549561,81.467743 
	C6.582297,81.522797 6.516823,81.412682 6.549561,81.467743 
z"/>
<path fill="#313131" opacity="1.000000" stroke="none" 
	d="
M5.549561,121.467743 
	C5.582297,121.522797 5.516823,121.412682 5.549561,121.467743 
z"/>
<path fill="#313131" opacity="1.000000" stroke="none" 
	d="
M5.450439,123.532257 
	C5.417703,123.477203 5.483177,123.587318 5.450439,123.532257 
z"/>
<path fill="#313131" opacity="1.000000" stroke="none" 
	d="
M5.532244,131.549561 
	C5.477175,131.582306 5.587313,131.516830 5.532244,131.549561 
z"/>
<path fill="#313131" opacity="1.000000" stroke="none" 
	d="
M5.532244,139.549561 
	C5.477175,139.582306 5.587313,139.516830 5.532244,139.549561 
z"/>
<path fill="#F3F2F2" opacity="1.000000" stroke="none" 
	d="
M72.187889,141.181473 
	C72.180618,141.039062 72.619423,140.941864 73.290558,140.976715 
	C73.226585,141.148087 72.930275,141.187393 72.187889,141.181473 
z"/>
<path fill="#313131" opacity="1.000000" stroke="none" 
	d="
M5.467756,147.450439 
	C5.522825,147.417694 5.412687,147.483170 5.467756,147.450439 
z"/>
<path fill="#313131" opacity="1.000000" stroke="none" 
	d="
M5.450434,149.532257 
	C5.417701,149.477188 5.483166,149.587311 5.450434,149.532257 
z"/>
<path fill="#313131" opacity="1.000000" stroke="none" 
	d="
M5.467756,159.450439 
	C5.522825,159.417694 5.412687,159.483170 5.467756,159.450439 
z"/>
<path fill="#464647" opacity="1.000000" stroke="none" 
	d="
M152.004745,47.995411 
	C151.595047,47.876575 151.180969,47.761955 150.766876,47.647339 
	C151.097549,47.636433 151.428223,47.625526 151.876617,47.811554 
	C151.994354,48.008492 152.000351,47.999630 152.004745,47.995411 
z"/>
<path fill="#464647" opacity="1.000000" stroke="none" 
	d="
M39.003487,342.004486 
	C39.087261,341.969635 39.167591,341.930298 39.119568,341.942200 
	C38.991219,341.993408 39.000042,342.000000 39.003487,342.004486 
z"/>
<path fill="#464647" opacity="1.000000" stroke="none" 
	d="
M205.004486,268.996552 
	C204.892349,268.865936 204.775742,268.738800 204.659134,268.611633 
	C204.736374,268.658508 204.813614,268.705353 204.942139,268.880493 
	C204.993393,269.008789 205.000015,269.000000 205.004486,268.996552 
z"/>
<path fill="#464647" opacity="1.000000" stroke="none" 
	d="
M222.004395,251.996643 
	C221.895065,251.863556 221.781326,251.733826 221.667587,251.604095 
	C221.744415,251.652359 221.821228,251.700638 221.945618,251.878937 
	C221.993164,252.008942 222.000000,252.000000 222.004395,251.996643 
z"/>
</svg>